<?xml version="1.0" encoding="UTF-8" standalone="no"?>
<!-- Created with Inkscape (http://www.inkscape.org/) -->

<svg
   width="48"
   height="48"
   viewBox="0 0 12.7 12.7"
   version="1.1"
   id="svg5"
   inkscape:version="1.2.2 (732a01da63, 2022-12-09)"
   sodipodi:docname="jottaro logo.svg"
   xmlns:inkscape="http://www.inkscape.org/namespaces/inkscape"
   xmlns:sodipodi="http://sodipodi.sourceforge.net/DTD/sodipodi-0.dtd"
   xmlns="http://www.w3.org/2000/svg"
   xmlns:svg="http://www.w3.org/2000/svg">
  <sodipodi:namedview
     id="namedview7"
     pagecolor="#ffffff"
     bordercolor="#000000"
     borderopacity="0.25"
     inkscape:showpageshadow="2"
     inkscape:pageopacity="0.0"
     inkscape:pagecheckerboard="0"
     inkscape:deskcolor="#d1d1d1"
     inkscape:document-units="mm"
     showgrid="false"
     inkscape:zoom="8.5225752"
     inkscape:cx="26.341803"
     inkscape:cy="21.941725"
     inkscape:window-width="1366"
     inkscape:window-height="715"
     inkscape:window-x="-8"
     inkscape:window-y="-8"
     inkscape:window-maximized="1"
     inkscape:current-layer="layer1" />
  <defs
     id="defs2" />
  <g
     inkscape:label="Layer 1"
     inkscape:groupmode="layer"
     id="layer1">
    <rect
       style="fill:#00ff00;stroke:none;stroke-width:0.26715;stroke-dasharray:none"
       id="rect1178"
       width="8.5385122"
       height="10.583333"
       x="2.7114501"
       y="1.7740313"
       ry="1.0093855" />
    <rect
       style="fill:#003380;stroke:none;stroke-width:0.26715;stroke-dasharray:none"
       id="rect1543"
       width="8.5385122"
       height="10.583333"
       x="2.5765126"
       y="1.6390938"
       ry="1.0093855" />
    <rect
       style="fill:#00ffcc;stroke:none;stroke-width:0.26715;stroke-dasharray:none"
       id="rect1541"
       width="8.5385122"
       height="10.583333"
       x="2.4468668"
       y="1.5094479"
       ry="1.0093855" />
    <rect
       style="fill:#222b00;stroke:none;stroke-width:0.26715;stroke-dasharray:none"
       id="rect1487"
       width="8.5385122"
       height="10.583333"
       x="2.3172209"
       y="1.3798021"
       ry="1.0093855" />
    <rect
       style="fill:#00aad4;stroke:none;stroke-width:0.260266;stroke-dasharray:none;fill-opacity:1"
       id="rect1741"
       width="0.58126289"
       height="2.5839207"
       x="9.8885107"
       y="0.10045307"
       ry="0.39422917" />
    <rect
       style="fill:#ff0000;stroke:none;stroke-width:0.26715;stroke-dasharray:none"
       id="rect840"
       width="8.5385122"
       height="10.583333"
       x="2.0807438"
       y="1.1431824"
       ry="1.0093855" />
    <rect
       style="fill:#00ffff;stroke:none;stroke-width:0.260266;stroke-dasharray:none"
       id="rect1112"
       width="0.58126289"
       height="2.5839207"
       x="2.7336888"
       y="0.10045307"
       ry="0.39422917" />
    <rect
       style="fill:#00ffff;stroke:none;stroke-width:0.260266;stroke-dasharray:none"
       id="rect1116"
       width="0.58126289"
       height="2.5839207"
       x="4.3911653"
       y="0.10045307"
       ry="0.39422917" />
    <rect
       style="fill:#00ffff;stroke:none;stroke-width:0.260266;stroke-dasharray:none"
       id="rect1118"
       width="0.58126289"
       height="2.5839207"
       x="6.0486412"
       y="0.10045307"
       ry="0.39422917" />
    <rect
       style="fill:#00ffff;stroke:none;stroke-width:0.260272;stroke-dasharray:none"
       id="rect1120"
       width="0.58128959"
       height="2.5839207"
       x="7.7061176"
       y="0.10045307"
       ry="0.39422917" />
    <rect
       style="fill:#00ffff;stroke:none;stroke-width:0.260266;stroke-dasharray:none"
       id="rect1122"
       width="0.58126289"
       height="2.5839207"
       x="9.3635941"
       y="0.10045307"
       ry="0.39422917" />
    <circle
       style="fill:#ffff00;stroke:none;stroke-width:0.233699;stroke-dasharray:none"
       id="path1056"
       cx="6.3499999"
       cy="6.3499999"
       r="3.3072917" />
    <path
       sodipodi:type="star"
       style="fill:#00ffff;stroke:none;stroke-width:0.264999;stroke-dasharray:none"
       id="path2176"
       inkscape:flatsided="false"
       sodipodi:sides="5"
       sodipodi:cx="5.7593098"
       sodipodi:cy="4.587357"
       sodipodi:r1="3.3340068"
       sodipodi:r2="1.6670035"
       sodipodi:arg1="0.98557923"
       sodipodi:arg2="1.6138978"
       inkscape:rounded="0"
       inkscape:randomized="0"
       d="M 7.6009497,7.366559 5.6874817,6.2528124 3.6852296,7.1976813 4.1531715,5.0336985 2.6358179,3.4214242 4.8384898,3.1977559 5.9029658,1.2564466 6.79635,3.2821949 8.971586,3.6946741 7.3210558,5.1703236 Z"
       inkscape:transform-center-x="-0.037076258"
       inkscape:transform-center-y="-0.23890376"
       transform="matrix(0.83520518,0,0,0.86605062,2.307442,-12.949449)" />
    <path
       id="path2182"
       style="fill:#004455;stroke:none;stroke-width:0.225378;stroke-dasharray:none"
       inkscape:transform-center-x="-0.037076258"
       inkscape:transform-center-y="-0.23890376"
       d="m 9.0044817,-13.29508 0.2180746,1.5875 1.3740757,-1.27434 z" />
    <path
       style="fill:#374845;fill-opacity:1;stroke:none;stroke-width:0.264999;stroke-dasharray:none"
       d="m 6.3485736,-10.18003 1.6352149,0.07313 0.438237,1.635215 -1.3643694,0.9374901 -1.2814639,-1.0558142 0.5723814,-1.5900189"
       id="path2403" />
    <path
       style="fill:#002255;fill-opacity:1;stroke:none;stroke-width:0.264999;stroke-dasharray:none"
       d="M 4.5088907,-9.9863223 5.7761922,-8.590009 7.0991089,-8.8571124 Z"
       id="path2405" />
    <path
       style="fill:#002255;fill-opacity:1;stroke:none;stroke-width:0.264999;stroke-dasharray:none"
       d="m 7.2376294,-11.861302 -0.1385205,3.0041898 0.8846796,-1.2497898 -0.7461591,-1.7544"
       id="path2461" />
    <path
       style="fill:#002255;fill-opacity:1;stroke:none;stroke-width:0.264999;stroke-dasharray:none"
       d="M 9.8005571,-9.749674 7.0991089,-8.8571122 8.4220255,-8.471687 Z"
       id="path2463" />
    <path
       style="fill:#002255;fill-opacity:1;stroke:none;stroke-width:0.264999;stroke-dasharray:none"
       d="m 5.3853648,-6.7158925 1.7137441,-2.1412197 -0.041453,1.3229153 -1.6722913,0.8183044"
       id="path2465" />
    <path
       style="fill:#002255;fill-opacity:1;stroke:none;stroke-width:0.264999;stroke-dasharray:none"
       d="M 7.0991089,-8.8571122 8.4220255,-8.471687 8.6557944,-6.5696358 7.0991089,-8.8571122"
       id="path2467" />
    <path
       sodipodi:type="star"
       style="fill:#00ffff;stroke:none;stroke-width:0.264999;stroke-dasharray:none"
       id="path2469"
       inkscape:flatsided="false"
       sodipodi:sides="5"
       sodipodi:cx="5.7593098"
       sodipodi:cy="4.587357"
       sodipodi:r1="3.3340068"
       sodipodi:r2="1.6670035"
       sodipodi:arg1="0.98557923"
       sodipodi:arg2="1.6138978"
       inkscape:rounded="0"
       inkscape:randomized="0"
       d="M 7.6009497,7.366559 5.6874817,6.2528124 3.6852296,7.1976813 4.1531715,5.0336985 2.6358179,3.4214242 4.8384898,3.1977559 5.9029658,1.2564466 6.79635,3.2821949 8.971586,3.6946741 7.3210558,5.1703236 Z"
       inkscape:transform-center-x="-0.037076258"
       inkscape:transform-center-y="-0.23890376"
       transform="matrix(0.83520518,0,0,0.86605062,-4.8472819,-11.520482)" />
    <path
       style="fill:#002255;fill-opacity:1;stroke:none;stroke-width:0.264999;stroke-dasharray:none"
       d="m -2.6458332,-8.5573554 1.2673015,1.3963133 1.3229167,-0.2671034 z"
       id="path2473" />
    <path
       style="fill:#002255;fill-opacity:1;stroke:none;stroke-width:0.264999;stroke-dasharray:none"
       d="M 0.0829055,-10.432335 -0.055615,-7.4281453 0.8290646,-8.6779351 0.0829055,-10.432335"
       id="path2475" />
    <path
       style="fill:#002255;fill-opacity:1;stroke:none;stroke-width:0.264999;stroke-dasharray:none"
       d="m 2.6458332,-8.3207071 -2.7014482,0.8925618 1.3229166,0.3854252 z"
       id="path2477" />
    <path
       style="fill:#002255;fill-opacity:1;stroke:none;stroke-width:0.264999;stroke-dasharray:none"
       d="M -1.7693591,-5.2869256 -0.055615,-7.4281453 -0.097068,-6.10523 -1.7693593,-5.2869256"
       id="path2479" />
    <path
       style="fill:#002255;fill-opacity:1;stroke:none;stroke-width:0.264999;stroke-dasharray:none"
       d="m -0.055615,-7.4281453 1.3229166,0.3854252 0.2337689,1.9020512 -1.5566855,-2.2874764"
       id="path2481" />
    <g
       id="g1207"
       transform="translate(-17.25385,0.36866066)">
      <rect
         style="fill:#00ff00;stroke:none;stroke-width:0.265;stroke-dasharray:none"
         id="rect1180"
         width="8.5385122"
         height="10.413635"
         x="2.5495248"
         y="1.4485904" />
      <rect
         style="fill:#ff0000;stroke:none;stroke-width:0.265;stroke-dasharray:none"
         id="rect1182"
         width="8.5385122"
         height="10.413635"
         x="2.0807438"
         y="1.1431824" />
      <circle
         style="fill:#ffff00;stroke:none;stroke-width:0.264999;stroke-dasharray:none"
         id="circle1184"
         cx="6.3499999"
         cy="6.8857498"
         r="3.7502484" />
      <rect
         style="fill:#00ffff;stroke:none;stroke-width:0.264999;stroke-dasharray:none"
         id="rect1186"
         width="0.58126289"
         height="2.6787488"
         x="2.7336888"
         y="0.10045307" />
      <rect
         style="fill:#00ffff;stroke:none;stroke-width:0.264999;stroke-dasharray:none"
         id="rect1188"
         width="0.58126289"
         height="2.6787488"
         x="4.2739697"
         y="0.10045307" />
      <rect
         style="fill:#00ffff;stroke:none;stroke-width:0.264999;stroke-dasharray:none"
         id="rect1190"
         width="0.58126289"
         height="2.6787488"
         x="6.0486412"
         y="0.10045307" />
      <rect
         style="fill:#00ffff;stroke:none;stroke-width:0.264999;stroke-dasharray:none"
         id="rect1192"
         width="0.58126289"
         height="2.6787488"
         x="7.8233128"
         y="0.10045307" />
      <rect
         style="fill:#00ffff;stroke:none;stroke-width:0.264999;stroke-dasharray:none"
         id="rect1194"
         width="0.58126289"
         height="2.6787488"
         x="9.3635941"
         y="0.10045307" />
      <path
         sodipodi:type="star"
         style="fill:#00ffff;stroke:none;stroke-width:0.264999;stroke-dasharray:none"
         id="path1196"
         inkscape:flatsided="false"
         sodipodi:sides="5"
         sodipodi:cx="5.7593098"
         sodipodi:cy="4.587357"
         sodipodi:r1="3.3340068"
         sodipodi:r2="1.6670035"
         sodipodi:arg1="0.98557923"
         sodipodi:arg2="1.6138978"
         inkscape:rounded="0"
         inkscape:randomized="0"
         d="M 7.6009497,7.366559 5.6874817,6.2528124 3.6852296,7.1976813 4.1531715,5.0336985 2.6358179,3.4214242 4.8384898,3.1977559 5.9029658,1.2564466 6.79635,3.2821949 8.971586,3.6946741 7.3210558,5.1703236 Z"
         inkscape:transform-center-x="-0.044392068"
         inkscape:transform-center-y="-0.27585426"
         transform="translate(0.546298,2.3439052)" />
    </g>
    <rect
       style="fill:#ff00ff;stroke:none;stroke-width:0.211201;stroke-dasharray:none"
       id="rect1209"
       width="8.5385122"
       height="6.6145835"
       x="-4.2692561"
       y="13.865393" />
    <rect
       style="fill:#0000ff;stroke:none;stroke-width:0.166969;stroke-dasharray:none"
       id="rect1211"
       width="8.5385122"
       height="4.1341147"
       x="6.8187809"
       y="14.640229" />
    <rect
       style="fill:#d45500;stroke:none;stroke-width:0.132006;stroke-dasharray:none"
       id="rect1213"
       width="8.5388403"
       height="2.5839207"
       x="10.336399"
       y="15.880724" />
    <rect
       style="fill:#800000;stroke:none;stroke-width:0.10436;stroke-dasharray:none"
       id="rect1323"
       width="8.5388403"
       height="1.6149505"
       x="1.5881283"
       y="13.865393" />
    <rect
       style="fill:#008080;stroke:none;stroke-width:0.0825055;stroke-dasharray:none"
       id="rect1325"
       width="8.5388403"
       height="1.0093855"
       x="3.3610802"
       y="19.66139" />
    <rect
       style="fill:#ccff00;stroke:none;stroke-width:0.0652263;stroke-dasharray:none"
       id="rect1379"
       width="8.5388403"
       height="0.63086587"
       x="1.1041811"
       y="16.07642" />
    <rect
       style="fill:#112b00;stroke:none;stroke-width:0.0515619;stroke-dasharray:none"
       id="rect1433"
       width="8.5388403"
       height="0.39422917"
       x="0.41237655"
       y="17.303362" />
    <path
       id="rect1545"
       style="fill:#00aad4;stroke:none;stroke-width:0.260272;stroke-dasharray:none"
       d="M 3.6054647 0.10025228 C 3.4444476 0.10025228 3.3150431 0.27614071 3.3150431 0.49454346 L 3.3150431 1.1430827 L 3.896403 1.1430827 L 3.896403 0.49454346 C 3.896403 0.27614071 3.7664817 0.10025228 3.6054647 0.10025228 z " />
    <path
       id="path1654"
       style="fill:#00aad4;stroke:none;stroke-width:0.260272;stroke-dasharray:none"
       d="m 5.2062122,0.10025228 c -0.1610171,0 -0.2904216,0.17588843 -0.2904216,0.39429118 V 1.1430827 H 5.4971505 V 0.49454346 c 0,-0.21840275 -0.1299213,-0.39429118 -0.2909383,-0.39429118 z" />
    <rect
       style="fill:#00ff00;stroke:none;stroke-width:0.26715;stroke-dasharray:none"
       id="rect1656"
       width="8.5385122"
       height="10.583333"
       x="17.341537"
       y="1.6891824"
       ry="1.0093855" />
    <rect
       style="fill:#003380;stroke:none;stroke-width:0.26715;stroke-dasharray:none"
       id="rect1658"
       width="8.5385122"
       height="10.583333"
       x="17.2066"
       y="1.5542449"
       ry="1.0093855" />
    <rect
       style="fill:#00ffcc;stroke:none;stroke-width:0.26715;stroke-dasharray:none"
       id="rect1660"
       width="8.5385122"
       height="10.583333"
       x="17.076954"
       y="1.4245991"
       ry="1.0093855" />
    <rect
       style="fill:#222b00;stroke:none;stroke-width:0.26715;stroke-dasharray:none"
       id="rect1662"
       width="8.5385122"
       height="10.583333"
       x="16.947309"
       y="1.2949532"
       ry="1.0093855" />
    <rect
       style="fill:#ff0000;stroke:none;stroke-width:0.26715;stroke-dasharray:none"
       id="rect1664"
       width="8.5385122"
       height="10.583333"
       x="16.710831"
       y="1.0583335"
       ry="1.0093855" />
    <rect
       style="fill:#00ffff;stroke:none;stroke-width:0.260266;stroke-dasharray:none"
       id="rect1666"
       width="0.58126289"
       height="2.5839207"
       x="17.363777"
       y="0.015604166"
       ry="0.39422917" />
    <rect
       style="fill:#00ffff;stroke:none;stroke-width:0.260266;stroke-dasharray:none"
       id="rect1668"
       width="0.58126289"
       height="2.5839207"
       x="19.021254"
       y="0.015604166"
       ry="0.39422917" />
    <rect
       style="fill:#00ffff;stroke:none;stroke-width:0.260266;stroke-dasharray:none"
       id="rect1670"
       width="0.58126289"
       height="2.5839207"
       x="20.678728"
       y="0.015604166"
       ry="0.39422917" />
    <rect
       style="fill:#00ffff;stroke:none;stroke-width:0.260272;stroke-dasharray:none"
       id="rect1672"
       width="0.58128959"
       height="2.5839207"
       x="22.336205"
       y="0.015604166"
       ry="0.39422917" />
    <rect
       style="fill:#00ffff;stroke:none;stroke-width:0.260266;stroke-dasharray:none"
       id="rect1674"
       width="0.58126289"
       height="2.5839207"
       x="23.993681"
       y="0.015604166"
       ry="0.39422917" />
    <g
       id="g1680"
       transform="translate(14.630088,-0.0848489)">
      <circle
         style="fill:#ffff00;stroke:none;stroke-width:0.233699;stroke-dasharray:none"
         id="circle1676"
         cx="6.3499999"
         cy="6.3499999"
         r="3.3072917" />
      <path
         sodipodi:type="star"
         style="fill:#00ffff;stroke:none;stroke-width:0.264999;stroke-dasharray:none"
         id="path1678"
         inkscape:flatsided="false"
         sodipodi:sides="5"
         sodipodi:cx="5.7593098"
         sodipodi:cy="4.587357"
         sodipodi:r1="3.3340068"
         sodipodi:r2="1.6670035"
         sodipodi:arg1="0.98557923"
         sodipodi:arg2="1.6138978"
         inkscape:rounded="0"
         inkscape:randomized="0"
         d="M 7.6009497,7.366559 5.6874817,6.2528124 3.6852296,7.1976813 4.1531715,5.0336985 2.6358179,3.4214242 4.8384898,3.1977559 5.9029658,1.2564466 6.79635,3.2821949 8.971586,3.6946741 7.3210558,5.1703236 Z"
         inkscape:transform-center-x="-0.037076258"
         inkscape:transform-center-y="-0.23890376"
         transform="matrix(0.83520518,0,0,0.86605062,1.502718,2.2801789)" />
    </g>
    <path
       id="path1735"
       style="fill:#00aad4;stroke:none;stroke-width:0.260272;stroke-dasharray:none"
       d="m 6.8637856,0.10025228 c -0.1610171,0 -0.2904216,0.17588843 -0.2904216,0.39429118 V 1.1430827 H 7.1547239 V 0.49454346 c 0,-0.21840275 -0.1299213,-0.39429118 -0.2909383,-0.39429118 z" />
    <path
       id="path1737"
       style="fill:#00aad4;stroke:none;stroke-width:0.260272;stroke-dasharray:none"
       d="m 8.5213586,0.10025228 c -0.1610171,0 -0.2904216,0.17588843 -0.2904216,0.39429118 V 1.1430827 H 8.8122969 V 0.49454346 c 0,-0.21840275 -0.1299213,-0.39429118 -0.2909383,-0.39429118 z" />
    <rect
       style="fill:#00ff00;stroke:none;stroke-width:0.26715;stroke-dasharray:none"
       id="rect2088"
       width="8.5385122"
       height="10.583333"
       x="32.624672"
       y="1.6891824"
       ry="1.0093855" />
    <rect
       style="fill:#003380;stroke:none;stroke-width:0.26715;stroke-dasharray:none"
       id="rect2090"
       width="8.5385122"
       height="10.583333"
       x="32.489735"
       y="1.5542449"
       ry="1.0093855" />
    <rect
       style="fill:#00ffcc;stroke:none;stroke-width:0.26715;stroke-dasharray:none"
       id="rect2092"
       width="8.5385122"
       height="10.583333"
       x="32.360088"
       y="1.4245991"
       ry="1.0093855" />
    <rect
       style="fill:#222b00;stroke:none;stroke-width:0.26715;stroke-dasharray:none"
       id="rect2094"
       width="8.5385122"
       height="10.583333"
       x="32.230442"
       y="1.2949532"
       ry="1.0093855" />
    <rect
       style="fill:#00aad4;fill-opacity:1;stroke:none;stroke-width:0.260266;stroke-dasharray:none"
       id="rect2096"
       width="0.58126289"
       height="2.5839207"
       x="39.801735"
       y="0.015604182"
       ry="0.39422917" />
    <rect
       style="fill:#ff0000;stroke:none;stroke-width:0.26715;stroke-dasharray:none"
       id="rect2098"
       width="8.5385122"
       height="10.583333"
       x="31.993963"
       y="1.0583335"
       ry="1.0093855" />
    <rect
       style="fill:#00ffff;stroke:none;stroke-width:0.260266;stroke-dasharray:none"
       id="rect2100"
       width="0.58126289"
       height="2.5839207"
       x="32.646912"
       y="0.015604182"
       ry="0.39422917" />
    <rect
       style="fill:#00ffff;stroke:none;stroke-width:0.260266;stroke-dasharray:none"
       id="rect2102"
       width="0.58126289"
       height="2.5839207"
       x="34.30439"
       y="0.015604182"
       ry="0.39422917" />
    <rect
       style="fill:#00ffff;stroke:none;stroke-width:0.260266;stroke-dasharray:none"
       id="rect2104"
       width="0.58126289"
       height="2.5839207"
       x="35.961864"
       y="0.015604182"
       ry="0.39422917" />
    <rect
       style="fill:#00ffff;stroke:none;stroke-width:0.260272;stroke-dasharray:none"
       id="rect2106"
       width="0.58128959"
       height="2.5839207"
       x="37.619339"
       y="0.015604182"
       ry="0.39422917" />
    <rect
       style="fill:#00ffff;stroke:none;stroke-width:0.260266;stroke-dasharray:none"
       id="rect2108"
       width="0.58126289"
       height="2.5839207"
       x="39.276817"
       y="0.015604182"
       ry="0.39422917" />
    <g
       id="g2114"
       transform="translate(29.913222,-0.0848489)">
      <circle
         style="fill:#ffff00;stroke:none;stroke-width:0.233699;stroke-dasharray:none"
         id="circle2110"
         cx="6.3499999"
         cy="6.3499999"
         r="3.3072917" />
      <path
         sodipodi:type="star"
         style="fill:#00ffff;stroke:none;stroke-width:0.264999;stroke-dasharray:none"
         id="path2112"
         inkscape:flatsided="false"
         sodipodi:sides="5"
         sodipodi:cx="5.7593098"
         sodipodi:cy="4.587357"
         sodipodi:r1="3.3340068"
         sodipodi:r2="1.6670035"
         sodipodi:arg1="0.98557923"
         sodipodi:arg2="1.6138978"
         inkscape:rounded="0"
         inkscape:randomized="0"
         d="M 7.6009497,7.366559 5.6874817,6.2528124 3.6852296,7.1976813 4.1531715,5.0336985 2.6358179,3.4214242 4.8384898,3.1977559 5.9029658,1.2564466 6.79635,3.2821949 8.971586,3.6946741 7.3210558,5.1703236 Z"
         inkscape:transform-center-x="-0.037076258"
         inkscape:transform-center-y="-0.23890376"
         transform="matrix(0.83520518,0,0,0.86605062,1.502718,2.2801789)" />
    </g>
    <path
       id="path2116"
       style="fill:#00aad4;stroke:none;stroke-width:0.260272;stroke-dasharray:none"
       d="m 33.518687,0.01540338 c -0.161017,0 -0.290422,0.17588843 -0.290422,0.39429122 v 0.6485392 h 0.58136 V 0.4096946 c 0,-0.21840279 -0.129921,-0.39429122 -0.290938,-0.39429122 z" />
    <path
       id="path2118"
       style="fill:#00aad4;stroke:none;stroke-width:0.260272;stroke-dasharray:none"
       d="m 35.119434,0.01540338 c -0.161017,0 -0.290421,0.17588843 -0.290421,0.39429122 v 0.6485392 h 0.58136 V 0.4096946 c 0,-0.21840279 -0.129922,-0.39429122 -0.290939,-0.39429122 z" />
    <path
       id="path2120"
       style="fill:#00aad4;stroke:none;stroke-width:0.260272;stroke-dasharray:none"
       d="m 36.777008,0.01540338 c -0.161017,0 -0.290422,0.17588843 -0.290422,0.39429122 v 0.6485392 h 0.58136 V 0.4096946 c 0,-0.21840279 -0.129921,-0.39429122 -0.290938,-0.39429122 z" />
    <path
       id="path2122"
       style="fill:#00aad4;stroke:none;stroke-width:0.260272;stroke-dasharray:none"
       d="m 38.434581,0.01540338 c -0.161017,0 -0.290422,0.17588843 -0.290422,0.39429122 v 0.6485392 h 0.58136 V 0.4096946 c 0,-0.21840279 -0.129921,-0.39429122 -0.290938,-0.39429122 z" />
    <g
       id="g2615"
       transform="translate(6.35,13.800661)">
      <path
         sodipodi:type="star"
         style="fill:#00ffff;stroke:none;stroke-width:0.264999;stroke-dasharray:none"
         id="path2597"
         inkscape:flatsided="false"
         sodipodi:sides="5"
         sodipodi:cx="5.7593098"
         sodipodi:cy="4.587357"
         sodipodi:r1="3.3340068"
         sodipodi:r2="1.6670035"
         sodipodi:arg1="0.98557923"
         sodipodi:arg2="1.6138978"
         inkscape:rounded="0"
         inkscape:randomized="0"
         d="M 7.6009497,7.366559 5.6874817,6.2528124 3.6852296,7.1976813 4.1531715,5.0336985 2.6358179,3.4214242 4.8384898,3.1977559 5.9029658,1.2564466 6.79635,3.2821949 8.971586,3.6946741 7.3210558,5.1703236 Z"
         inkscape:transform-center-x="-0.037076258"
         inkscape:transform-center-y="-0.23890376"
         transform="matrix(0.83520518,0,0,0.86605062,-4.8472819,-11.520482)" />
      <path
         style="fill:#002255;fill-opacity:1;stroke:none;stroke-width:0.264999;stroke-dasharray:none"
         d="m -2.6458332,-8.5573554 1.2673015,1.3963133 1.3229167,-0.2671034 z"
         id="path2599" />
      <path
         style="fill:#002255;fill-opacity:1;stroke:none;stroke-width:0.264999;stroke-dasharray:none"
         d="M 0.0829055,-10.432335 -0.055615,-7.4281453 0.8290646,-8.6779351 0.0829055,-10.432335"
         id="path2601" />
      <path
         style="fill:#002255;fill-opacity:1;stroke:none;stroke-width:0.264999;stroke-dasharray:none"
         d="m 2.6458332,-8.3207071 -2.7014482,0.8925618 1.3229166,0.3854252 z"
         id="path2603" />
      <path
         style="fill:#002255;fill-opacity:1;stroke:none;stroke-width:0.264999;stroke-dasharray:none"
         d="M -1.7693591,-5.2869256 -0.055615,-7.4281453 -0.097068,-6.10523 -1.7693593,-5.2869256"
         id="path2605" />
      <path
         style="fill:#002255;fill-opacity:1;stroke:none;stroke-width:0.264999;stroke-dasharray:none"
         d="m -0.055615,-7.4281453 1.3229166,0.3854252 0.2337689,1.9020512 -1.5566855,-2.2874764"
         id="path2607" />
    </g>
    <rect
       style="fill:#00ff00;stroke:none;stroke-width:0.26715;stroke-dasharray:none"
       id="rect2617"
       width="8.5385122"
       height="10.583333"
       x="49.095898"
       y="1.4525627"
       ry="1.0093855" />
    <rect
       style="fill:#003380;stroke:none;stroke-width:0.26715;stroke-dasharray:none"
       id="rect2619"
       width="8.5385122"
       height="10.583333"
       x="48.960957"
       y="1.3176252"
       ry="1.0093855" />
    <rect
       style="fill:#00ffcc;stroke:none;stroke-width:0.26715;stroke-dasharray:none"
       id="rect2621"
       width="8.5385122"
       height="10.583333"
       x="48.831314"
       y="1.1879793"
       ry="1.0093855" />
    <rect
       style="fill:#222b00;stroke:none;stroke-width:0.26715;stroke-dasharray:none"
       id="rect2623"
       width="8.5385122"
       height="10.583333"
       x="48.701668"
       y="1.0583335"
       ry="1.0093855" />
    <rect
       style="fill:#00aad4;fill-opacity:1;stroke:none;stroke-width:0.260266;stroke-dasharray:none"
       id="rect2625"
       width="0.58126289"
       height="2.5839207"
       x="56.272953"
       y="-0.22101551"
       ry="0.39422917" />
    <rect
       style="fill:#ff0000;stroke:none;stroke-width:0.26715;stroke-dasharray:none"
       id="rect2627"
       width="8.5385122"
       height="10.583333"
       x="48.465191"
       y="0.82171381"
       ry="1.0093855" />
    <rect
       style="fill:#00ffff;stroke:none;stroke-width:0.260266;stroke-dasharray:none"
       id="rect2629"
       width="0.58126289"
       height="2.5839207"
       x="49.118134"
       y="-0.22101551"
       ry="0.39422917" />
    <rect
       style="fill:#00ffff;stroke:none;stroke-width:0.260266;stroke-dasharray:none"
       id="rect2631"
       width="0.58126289"
       height="2.5839207"
       x="50.775608"
       y="-0.22101551"
       ry="0.39422917" />
    <rect
       style="fill:#00ffff;stroke:none;stroke-width:0.260266;stroke-dasharray:none"
       id="rect2633"
       width="0.58126289"
       height="2.5839207"
       x="52.433086"
       y="-0.22101551"
       ry="0.39422917" />
    <rect
       style="fill:#00ffff;stroke:none;stroke-width:0.260272;stroke-dasharray:none"
       id="rect2635"
       width="0.58128959"
       height="2.5839207"
       x="54.090565"
       y="-0.22101551"
       ry="0.39422917" />
    <rect
       style="fill:#00ffff;stroke:none;stroke-width:0.260266;stroke-dasharray:none"
       id="rect2637"
       width="0.58126289"
       height="2.5839207"
       x="55.748043"
       y="-0.22101551"
       ry="0.39422917" />
    <circle
       style="fill:#ffff00;stroke:none;stroke-width:0.233699;stroke-dasharray:none"
       id="circle2639"
       cx="52.734447"
       cy="6.0285316"
       r="3.3072917" />
    <path
       id="path2641"
       style="fill:#00aad4;stroke:none;stroke-width:0.260272;stroke-dasharray:none"
       d="m 49.989911,-0.22121632 c -0.161017,0 -0.290421,0.17588843 -0.290421,0.39429118 V 0.8216141 h 0.58136 V 0.17307486 c 0,-0.21840275 -0.129922,-0.39429118 -0.290939,-0.39429118 z" />
    <path
       id="path2643"
       style="fill:#00aad4;stroke:none;stroke-width:0.260272;stroke-dasharray:none"
       d="m 51.590659,-0.22121632 c -0.161017,0 -0.290422,0.17588843 -0.290422,0.39429118 V 0.8216141 h 0.58136 V 0.17307486 c 0,-0.21840275 -0.129921,-0.39429118 -0.290938,-0.39429118 z" />
    <path
       id="path2645"
       style="fill:#00aad4;stroke:none;stroke-width:0.260272;stroke-dasharray:none"
       d="m 53.248232,-0.22121632 c -0.161017,0 -0.290421,0.17588843 -0.290421,0.39429118 V 0.8216141 h 0.58136 V 0.17307486 c 0,-0.21840275 -0.129922,-0.39429118 -0.290939,-0.39429118 z" />
    <path
       id="path2647"
       style="fill:#00aad4;stroke:none;stroke-width:0.260272;stroke-dasharray:none"
       d="m 54.905805,-0.22121632 c -0.161017,0 -0.290421,0.17588843 -0.290421,0.39429118 V 0.8216141 h 0.58136 V 0.17307486 c 0,-0.21840275 -0.129922,-0.39429118 -0.290939,-0.39429118 z" />
    <g
       id="g2661"
       transform="translate(52.734447,13.479192)">
      <path
         sodipodi:type="star"
         style="fill:#00ffff;stroke:none;stroke-width:0.264999;stroke-dasharray:none"
         id="path2649"
         inkscape:flatsided="false"
         sodipodi:sides="5"
         sodipodi:cx="5.7593098"
         sodipodi:cy="4.587357"
         sodipodi:r1="3.3340068"
         sodipodi:r2="1.6670035"
         sodipodi:arg1="0.98557923"
         sodipodi:arg2="1.6138978"
         inkscape:rounded="0"
         inkscape:randomized="0"
         d="M 7.6009497,7.366559 5.6874817,6.2528124 3.6852296,7.1976813 4.1531715,5.0336985 2.6358179,3.4214242 4.8384898,3.1977559 5.9029658,1.2564466 6.79635,3.2821949 8.971586,3.6946741 7.3210558,5.1703236 Z"
         inkscape:transform-center-x="-0.037076258"
         inkscape:transform-center-y="-0.23890376"
         transform="matrix(0.83520518,0,0,0.86605062,-4.8472819,-11.520482)" />
      <path
         style="fill:#002255;fill-opacity:1;stroke:none;stroke-width:0.264999;stroke-dasharray:none"
         d="m -2.6458332,-8.5573554 1.2673015,1.3963133 1.3229167,-0.2671034 z"
         id="path2651" />
      <path
         style="fill:#002255;fill-opacity:1;stroke:none;stroke-width:0.264999;stroke-dasharray:none"
         d="M 0.0829055,-10.432335 -0.055615,-7.4281453 0.8290646,-8.6779351 0.0829055,-10.432335"
         id="path2653" />
      <path
         style="fill:#002255;fill-opacity:1;stroke:none;stroke-width:0.264999;stroke-dasharray:none"
         d="m 2.6458332,-8.3207071 -2.7014482,0.8925618 1.3229166,0.3854252 z"
         id="path2655" />
      <path
         style="fill:#002255;fill-opacity:1;stroke:none;stroke-width:0.264999;stroke-dasharray:none"
         d="M -1.7693591,-5.2869256 -0.055615,-7.4281453 -0.097068,-6.10523 -1.7693593,-5.2869256"
         id="path2657" />
      <path
         style="fill:#002255;fill-opacity:1;stroke:none;stroke-width:0.264999;stroke-dasharray:none"
         d="m -0.055615,-7.4281453 1.3229166,0.3854252 0.2337689,1.9020512 -1.5566855,-2.2874764"
         id="path2659" />
    </g>
    <path
       id="circle2665"
       style="fill:#aa0044;stroke:none;stroke-width:0.233699;stroke-dasharray:none"
       d="M 17.672306 -13.057084 A 3.3072917 3.3072917 0 0 0 17.564303 -13.05295 A 3.3072917 3.3072917 0 0 1 20.715015 -9.7497925 A 3.3072917 3.3072917 0 0 1 17.540015 -6.4476685 A 3.3072917 3.3072917 0 0 0 17.672306 -6.4425008 A 3.3072917 3.3072917 0 0 0 20.979598 -9.7497925 A 3.3072917 3.3072917 0 0 0 17.672306 -13.057084 z " />
    <path
       id="path2782"
       style="fill:#aa0044;stroke:none;stroke-width:0.233699;stroke-dasharray:none"
       d="M 3.7832786,8.4356912 A 3.3072917,3.3072917 0 0 1 3.7183734,8.3492678 3.3072917,3.3072917 0 0 0 8.2688355,8.7113866 3.3072917,3.3072917 0 0 0 8.8292827,4.1648993 3.3072917,3.3072917 0 0 1 8.9167223,4.2643073 3.3072917,3.3072917 0 0 1 8.4356925,8.9167227 3.3072917,3.3072917 0 0 1 3.7832773,8.4356923 Z" />
    <g
       id="g2856"
       transform="translate(62.69792,-1.0703234)">
      <rect
         style="fill:#00ff00;stroke:none;stroke-width:0.26715;stroke-dasharray:none"
         id="rect2784"
         width="8.5385122"
         height="10.583333"
         x="2.7114501"
         y="1.7740313"
         ry="1.0093855" />
      <rect
         style="fill:#003380;stroke:none;stroke-width:0.26715;stroke-dasharray:none"
         id="rect2786"
         width="8.5385122"
         height="10.583333"
         x="2.5765126"
         y="1.6390938"
         ry="1.0093855" />
      <rect
         style="fill:#00ffcc;stroke:none;stroke-width:0.26715;stroke-dasharray:none"
         id="rect2788"
         width="8.5385122"
         height="10.583333"
         x="2.4468668"
         y="1.5094479"
         ry="1.0093855" />
      <rect
         style="fill:#222b00;stroke:none;stroke-width:0.26715;stroke-dasharray:none"
         id="rect2790"
         width="8.5385122"
         height="10.583333"
         x="2.3172209"
         y="1.3798021"
         ry="1.0093855" />
      <rect
         style="fill:#00aad4;fill-opacity:1;stroke:none;stroke-width:0.260266;stroke-dasharray:none"
         id="rect2792"
         width="0.58126289"
         height="2.5839207"
         x="9.8885107"
         y="0.10045307"
         ry="0.39422917" />
      <rect
         style="fill:#ff0000;stroke:none;stroke-width:0.26715;stroke-dasharray:none"
         id="rect2794"
         width="8.5385122"
         height="10.583333"
         x="2.0807438"
         y="1.1431824"
         ry="1.0093855" />
      <rect
         style="fill:#00ffff;stroke:none;stroke-width:0.260266;stroke-dasharray:none"
         id="rect2796"
         width="0.58126289"
         height="2.5839207"
         x="2.7336888"
         y="0.10045307"
         ry="0.39422917" />
      <rect
         style="fill:#00ffff;stroke:none;stroke-width:0.260266;stroke-dasharray:none"
         id="rect2798"
         width="0.58126289"
         height="2.5839207"
         x="4.3911653"
         y="0.10045307"
         ry="0.39422917" />
      <rect
         style="fill:#00ffff;stroke:none;stroke-width:0.260266;stroke-dasharray:none"
         id="rect2800"
         width="0.58126289"
         height="2.5839207"
         x="6.0486412"
         y="0.10045307"
         ry="0.39422917" />
      <rect
         style="fill:#00ffff;stroke:none;stroke-width:0.260272;stroke-dasharray:none"
         id="rect2802"
         width="0.58128959"
         height="2.5839207"
         x="7.7061176"
         y="0.10045307"
         ry="0.39422917" />
      <rect
         style="fill:#00ffff;stroke:none;stroke-width:0.260266;stroke-dasharray:none"
         id="rect2804"
         width="0.58126289"
         height="2.5839207"
         x="9.3635941"
         y="0.10045307"
         ry="0.39422917" />
      <circle
         style="fill:#ffff00;stroke:none;stroke-width:0.233699;stroke-dasharray:none"
         id="circle2806"
         cx="6.3499999"
         cy="6.3499999"
         r="3.3072917" />
      <path
         id="path2808"
         style="fill:#00aad4;stroke:none;stroke-width:0.260272;stroke-dasharray:none"
         d="m 3.6054647,0.10025228 c -0.1610171,0 -0.2904216,0.17588843 -0.2904216,0.39429118 V 1.1430827 H 3.896403 V 0.49454346 c 0,-0.21840275 -0.1299213,-0.39429118 -0.2909383,-0.39429118 z" />
      <path
         id="path2810"
         style="fill:#00aad4;stroke:none;stroke-width:0.260272;stroke-dasharray:none"
         d="m 5.2062122,0.10025228 c -0.1610171,0 -0.2904216,0.17588843 -0.2904216,0.39429118 V 1.1430827 H 5.4971505 V 0.49454346 c 0,-0.21840275 -0.1299213,-0.39429118 -0.2909383,-0.39429118 z" />
      <path
         id="path2812"
         style="fill:#00aad4;stroke:none;stroke-width:0.260272;stroke-dasharray:none"
         d="m 6.8637856,0.10025228 c -0.1610171,0 -0.2904216,0.17588843 -0.2904216,0.39429118 V 1.1430827 H 7.1547239 V 0.49454346 c 0,-0.21840275 -0.1299213,-0.39429118 -0.2909383,-0.39429118 z" />
      <path
         id="path2814"
         style="fill:#00aad4;stroke:none;stroke-width:0.260272;stroke-dasharray:none"
         d="m 8.5213586,0.10025228 c -0.1610171,0 -0.2904216,0.17588843 -0.2904216,0.39429118 V 1.1430827 H 8.8122969 V 0.49454346 c 0,-0.21840275 -0.1299213,-0.39429118 -0.2909383,-0.39429118 z" />
      <g
         id="g2828"
         transform="translate(6.35,13.800661)">
        <path
           sodipodi:type="star"
           style="fill:#00ffff;stroke:none;stroke-width:0.264999;stroke-dasharray:none"
           id="path2816"
           inkscape:flatsided="false"
           sodipodi:sides="5"
           sodipodi:cx="5.7593098"
           sodipodi:cy="4.587357"
           sodipodi:r1="3.3340068"
           sodipodi:r2="1.6670035"
           sodipodi:arg1="0.98557923"
           sodipodi:arg2="1.6138978"
           inkscape:rounded="0"
           inkscape:randomized="0"
           d="M 7.6009497,7.366559 5.6874817,6.2528124 3.6852296,7.1976813 4.1531715,5.0336985 2.6358179,3.4214242 4.8384898,3.1977559 5.9029658,1.2564466 6.79635,3.2821949 8.971586,3.6946741 7.3210558,5.1703236 Z"
           inkscape:transform-center-x="-0.037076258"
           inkscape:transform-center-y="-0.23890376"
           transform="matrix(0.83520518,0,0,0.86605062,-4.8472819,-11.520482)" />
        <path
           style="fill:#002255;fill-opacity:1;stroke:none;stroke-width:0.264999;stroke-dasharray:none"
           d="m -2.6458332,-8.5573554 1.2673015,1.3963133 1.3229167,-0.2671034 z"
           id="path2818" />
        <path
           style="fill:#002255;fill-opacity:1;stroke:none;stroke-width:0.264999;stroke-dasharray:none"
           d="M 0.0829055,-10.432335 -0.055615,-7.4281453 0.8290646,-8.6779351 0.0829055,-10.432335"
           id="path2820" />
        <path
           style="fill:#002255;fill-opacity:1;stroke:none;stroke-width:0.264999;stroke-dasharray:none"
           d="m 2.6458332,-8.3207071 -2.7014482,0.8925618 1.3229166,0.3854252 z"
           id="path2822" />
        <path
           style="fill:#002255;fill-opacity:1;stroke:none;stroke-width:0.264999;stroke-dasharray:none"
           d="M -1.7693591,-5.2869256 -0.055615,-7.4281453 -0.097068,-6.10523 -1.7693593,-5.2869256"
           id="path2824" />
        <path
           style="fill:#002255;fill-opacity:1;stroke:none;stroke-width:0.264999;stroke-dasharray:none"
           d="m -0.055615,-7.4281453 1.3229166,0.3854252 0.2337689,1.9020512 -1.5566855,-2.2874764"
           id="path2826" />
      </g>
      <path
         id="path2830"
         style="fill:#aa0044;stroke:none;stroke-width:0.233699;stroke-dasharray:none"
         d="M 3.7832786,8.4356912 A 3.3072917,3.3072917 0 0 1 3.7183734,8.3492678 3.3072917,3.3072917 0 0 0 8.2688355,8.7113866 3.3072917,3.3072917 0 0 0 8.8292827,4.1648993 3.3072917,3.3072917 0 0 1 8.9167223,4.2643073 3.3072917,3.3072917 0 0 1 8.4356925,8.9167227 3.3072917,3.3072917 0 0 1 3.7832773,8.4356923 Z" />
    </g>
  </g>
</svg>
