<?xml version="1.0" encoding="UTF-8" standalone="no"?>
<!-- Created with Inkscape (http://www.inkscape.org/) -->

<svg
   width="48"
   height="48"
   viewBox="0 0 12.7 12.7"
   version="1.1"
   id="svg3064"
   inkscape:version="1.2.2 (732a01da63, 2022-12-09)"
   sodipodi:docname="jottaro-final-logo.svg"
   xmlns:inkscape="http://www.inkscape.org/namespaces/inkscape"
   xmlns:sodipodi="http://sodipodi.sourceforge.net/DTD/sodipodi-0.dtd"
   xmlns="http://www.w3.org/2000/svg"
   xmlns:svg="http://www.w3.org/2000/svg"
   xmlns:rdf="http://www.w3.org/1999/02/22-rdf-syntax-ns#"
   xmlns:cc="http://creativecommons.org/ns#"
   xmlns:dc="http://purl.org/dc/elements/1.1/">
  <title
     id="title3705">jottaro logo</title>
  <sodipodi:namedview
     id="namedview3066"
     pagecolor="#ffffff"
     bordercolor="#000000"
     borderopacity="0.25"
     inkscape:showpageshadow="2"
     inkscape:pageopacity="0.0"
     inkscape:pagecheckerboard="0"
     inkscape:deskcolor="#d1d1d1"
     inkscape:document-units="mm"
     showgrid="false"
     inkscape:zoom="7.5007775"
     inkscape:cx="39.529236"
     inkscape:cy="18.131454"
     inkscape:window-width="1366"
     inkscape:window-height="715"
     inkscape:window-x="-8"
     inkscape:window-y="-8"
     inkscape:window-maximized="1"
     inkscape:current-layer="layer1" />
  <defs
     id="defs3061" />
  <g
     inkscape:label="Layer 1"
     inkscape:groupmode="layer"
     id="layer1">
    <rect
       style="fill:none;stroke:none;stroke-width:0.26715;stroke-dasharray:none"
       id="rect1178"
       width="8.5385122"
       height="10.583333"
       x="2.3960969"
       y="1.8952229"
       ry="1.0093855" />
    <rect
       style="fill:#003380;stroke:none;stroke-width:0.26715;stroke-dasharray:none"
       id="rect1543"
       width="8.5385122"
       height="10.583333"
       x="2.2611594"
       y="1.7602856"
       ry="1.0093855" />
    <rect
       style="fill:#00ffcc;stroke:none;stroke-width:0.26715;stroke-dasharray:none"
       id="rect1541"
       width="8.5385122"
       height="10.583333"
       x="2.1315136"
       y="1.6306398"
       ry="1.0093855" />
    <rect
       style="fill:#222b00;stroke:none;stroke-width:0.26715;stroke-dasharray:none"
       id="rect1487"
       width="8.5385122"
       height="10.583333"
       x="2.0018678"
       y="1.500994"
       ry="1.0093855" />
    <rect
       style="fill:#00aad4;fill-opacity:1;stroke:none;stroke-width:0.260266;stroke-dasharray:none"
       id="rect1741"
       width="0.58126289"
       height="2.5839207"
       x="9.5731583"
       y="0.22164482"
       ry="0.39422917" />
    <rect
       style="fill:#ff0000;stroke:none;stroke-width:0.26715;stroke-dasharray:none"
       id="rect840"
       width="8.5385122"
       height="10.583333"
       x="1.7653908"
       y="1.2643743"
       ry="1.0093855" />
    <rect
       style="fill:#00ffff;stroke:none;stroke-width:0.260266;stroke-dasharray:none"
       id="rect1112"
       width="0.58126289"
       height="2.5839207"
       x="2.4183357"
       y="0.22164482"
       ry="0.39422917" />
    <rect
       style="fill:#00ffff;stroke:none;stroke-width:0.260266;stroke-dasharray:none"
       id="rect1116"
       width="0.58126289"
       height="2.5839207"
       x="4.0758123"
       y="0.22164482"
       ry="0.39422917" />
    <rect
       style="fill:#00ffff;stroke:none;stroke-width:0.260266;stroke-dasharray:none"
       id="rect1118"
       width="0.58126289"
       height="2.5839207"
       x="5.7332883"
       y="0.22164482"
       ry="0.39422917" />
    <rect
       style="fill:#00ffff;stroke:none;stroke-width:0.260272;stroke-dasharray:none"
       id="rect1120"
       width="0.58128959"
       height="2.5839207"
       x="7.3907652"
       y="0.22164482"
       ry="0.39422917" />
    <rect
       style="fill:#00ffff;stroke:none;stroke-width:0.260266;stroke-dasharray:none"
       id="rect1122"
       width="0.58126289"
       height="2.5839207"
       x="9.0482416"
       y="0.22164482"
       ry="0.39422917" />
    <circle
       style="fill:#ffff00;stroke:none;stroke-width:0.233699;stroke-dasharray:none"
       id="path1056"
       cx="6.034647"
       cy="6.4711914"
       r="3.3072917" />
    <path
       id="rect1545"
       style="fill:#00aad4;stroke:none;stroke-width:0.260272;stroke-dasharray:none"
       d="m 3.2901117,0.2214441 c -0.1610171,0 -0.2904216,0.1758884 -0.2904216,0.3942912 V 1.2642745 H 3.5810499 V 0.6157353 c 0,-0.2184028 -0.1299213,-0.3942912 -0.2909382,-0.3942912 z" />
    <path
       id="path1654"
       style="fill:#00aad4;stroke:none;stroke-width:0.260272;stroke-dasharray:none"
       d="m 4.8908591,0.2214441 c -0.1610171,0 -0.2904216,0.1758884 -0.2904216,0.3942912 V 1.2642745 H 5.1817974 V 0.6157353 c 0,-0.2184028 -0.1299213,-0.3942912 -0.2909383,-0.3942912 z" />
    <path
       id="path1735"
       style="fill:#00aad4;stroke:none;stroke-width:0.260272;stroke-dasharray:none"
       d="m 6.5484325,0.2214441 c -0.1610171,0 -0.2904216,0.1758884 -0.2904216,0.3942912 V 1.2642745 H 6.8393708 V 0.6157353 c 0,-0.2184028 -0.1299213,-0.3942912 -0.2909383,-0.3942912 z" />
    <path
       id="path1737"
       style="fill:#00aad4;stroke:none;stroke-width:0.260272;stroke-dasharray:none"
       d="m 8.2060056,0.2214441 c -0.1610171,0 -0.2904217,0.1758884 -0.2904217,0.3942912 v 0.6485392 h 0.58136 V 0.6157353 c 0,-0.2184028 -0.1299213,-0.3942912 -0.2909383,-0.3942912 z" />
    <g
       id="g2615"
       transform="translate(6.0346469,13.921853)">
      <path
         sodipodi:type="star"
         style="fill:#00ffff;stroke:none;stroke-width:0.264999;stroke-dasharray:none"
         id="path2597"
         inkscape:flatsided="false"
         sodipodi:sides="5"
         sodipodi:cx="5.7593098"
         sodipodi:cy="4.587357"
         sodipodi:r1="3.3340068"
         sodipodi:r2="1.6670035"
         sodipodi:arg1="0.98557923"
         sodipodi:arg2="1.6138978"
         inkscape:rounded="0"
         inkscape:randomized="0"
         d="M 7.6009497,7.366559 5.6874817,6.2528124 3.6852296,7.1976813 4.1531715,5.0336985 2.6358179,3.4214242 4.8384898,3.1977559 5.9029658,1.2564466 6.79635,3.2821949 8.971586,3.6946741 7.3210558,5.1703236 Z"
         inkscape:transform-center-x="-0.037076258"
         inkscape:transform-center-y="-0.23890376"
         transform="matrix(0.83520518,0,0,0.86605062,-4.8472819,-11.520482)" />
      <path
         style="fill:#002255;fill-opacity:1;stroke:none;stroke-width:0.264999;stroke-dasharray:none"
         d="m -2.6458332,-8.5573554 1.2673015,1.3963133 1.3229167,-0.2671034 z"
         id="path2599" />
      <path
         style="fill:#002255;fill-opacity:1;stroke:none;stroke-width:0.264999;stroke-dasharray:none"
         d="M 0.0829055,-10.432335 -0.055615,-7.4281453 0.8290646,-8.6779351 0.0829055,-10.432335"
         id="path2601" />
      <path
         style="fill:#002255;fill-opacity:1;stroke:none;stroke-width:0.264999;stroke-dasharray:none"
         d="m 2.6458332,-8.3207071 -2.7014482,0.8925618 1.3229166,0.3854252 z"
         id="path2603" />
      <path
         style="fill:#002255;fill-opacity:1;stroke:none;stroke-width:0.264999;stroke-dasharray:none"
         d="M -1.7693591,-5.2869256 -0.055615,-7.4281453 -0.097068,-6.10523 -1.7693593,-5.2869256"
         id="path2605" />
      <path
         style="fill:#002255;fill-opacity:1;stroke:none;stroke-width:0.264999;stroke-dasharray:none"
         d="m -0.055615,-7.4281453 1.3229166,0.3854252 0.2337689,1.9020512 -1.5566855,-2.2874764"
         id="path2607" />
    </g>
    <rect
       style="fill:none;stroke:none;stroke-width:0.26715;stroke-dasharray:none"
       id="rect3736"
       width="8.5385122"
       height="10.583333"
       x="16.833771"
       y="1.7224036"
       ry="1.0093855" />
    <rect
       style="fill:#003380;stroke:none;stroke-width:0.26715;stroke-dasharray:none"
       id="rect3738"
       width="8.5385122"
       height="10.583333"
       x="16.698833"
       y="1.5874664"
       ry="1.0093855" />
    <rect
       style="fill:#00ffcc;stroke:none;stroke-width:0.26715;stroke-dasharray:none"
       id="rect3740"
       width="8.5385122"
       height="10.583333"
       x="16.569187"
       y="1.4578205"
       ry="1.0093855" />
    <rect
       style="fill:#222b00;stroke:none;stroke-width:0.26715;stroke-dasharray:none"
       id="rect3742"
       width="8.5385122"
       height="10.583333"
       x="16.439541"
       y="1.3281747"
       ry="1.0093855" />
    <rect
       style="fill:#00aad4;fill-opacity:1;stroke:none;stroke-width:0.260266;stroke-dasharray:none"
       id="rect3744"
       width="0.58126289"
       height="2.5839207"
       x="24.010832"
       y="0.048825596"
       ry="0.39422917" />
    <rect
       style="fill:#ff0000;stroke:none;stroke-width:0.26715;stroke-dasharray:none"
       id="rect3746"
       width="8.5385122"
       height="10.583333"
       x="16.203064"
       y="1.091555"
       ry="1.0093855" />
    <rect
       style="fill:#00ffff;stroke:none;stroke-width:0.260266;stroke-dasharray:none"
       id="rect3748"
       width="0.58126289"
       height="2.5839207"
       x="16.856009"
       y="0.048825596"
       ry="0.39422917" />
    <rect
       style="fill:#00ffff;stroke:none;stroke-width:0.260266;stroke-dasharray:none"
       id="rect3750"
       width="0.58126289"
       height="2.5839207"
       x="18.513485"
       y="0.048825596"
       ry="0.39422917" />
    <rect
       style="fill:#00ffff;stroke:none;stroke-width:0.260266;stroke-dasharray:none"
       id="rect3752"
       width="0.58126289"
       height="2.5839207"
       x="20.170961"
       y="0.048825596"
       ry="0.39422917" />
    <rect
       style="fill:#00ffff;stroke:none;stroke-width:0.260272;stroke-dasharray:none"
       id="rect3754"
       width="0.58128959"
       height="2.5839207"
       x="21.828438"
       y="0.048825596"
       ry="0.39422917" />
    <rect
       style="fill:#00ffff;stroke:none;stroke-width:0.260266;stroke-dasharray:none"
       id="rect3756"
       width="0.58126289"
       height="2.5839207"
       x="23.485914"
       y="0.048825596"
       ry="0.39422917" />
    <circle
       style="fill:#ffff00;stroke:none;stroke-width:0.233699;stroke-dasharray:none"
       id="circle3758"
       cx="20.472321"
       cy="6.2983723"
       r="3.3072917" />
    <path
       id="path3760"
       style="fill:#00aad4;stroke:none;stroke-width:0.260272;stroke-dasharray:none"
       d="m 17.727785,0.04862488 c -0.161017,0 -0.290421,0.1758884 -0.290421,0.3942912 V 1.0914553 h 0.581359 V 0.44291608 c 0,-0.2184028 -0.129921,-0.3942912 -0.290938,-0.3942912 z" />
    <path
       id="path3762"
       style="fill:#00aad4;stroke:none;stroke-width:0.260272;stroke-dasharray:none"
       d="m 19.328533,0.04862488 c -0.161018,0 -0.290422,0.1758884 -0.290422,0.3942912 V 1.0914553 h 0.58136 V 0.44291608 c 0,-0.2184028 -0.129921,-0.3942912 -0.290938,-0.3942912 z" />
    <path
       id="path3764"
       style="fill:#00aad4;stroke:none;stroke-width:0.260272;stroke-dasharray:none"
       d="m 20.986106,0.04862488 c -0.161017,0 -0.290422,0.1758884 -0.290422,0.3942912 V 1.0914553 h 0.58136 V 0.44291608 c 0,-0.2184028 -0.129921,-0.3942912 -0.290938,-0.3942912 z" />
    <path
       id="path3766"
       style="fill:#00aad4;stroke:none;stroke-width:0.260272;stroke-dasharray:none"
       d="m 22.643679,0.04862488 c -0.161017,0 -0.290422,0.1758884 -0.290422,0.3942912 V 1.0914553 h 0.58136 V 0.44291608 c 0,-0.2184028 -0.129921,-0.3942912 -0.290938,-0.3942912 z" />
    <g
       id="g3780"
       transform="translate(20.47232,13.749034)">
      <path
         sodipodi:type="star"
         style="fill:#00ffff;stroke:none;stroke-width:0.264999;stroke-dasharray:none"
         id="path3768"
         inkscape:flatsided="false"
         sodipodi:sides="5"
         sodipodi:cx="5.7593098"
         sodipodi:cy="4.587357"
         sodipodi:r1="3.3340068"
         sodipodi:r2="1.6670035"
         sodipodi:arg1="0.98557923"
         sodipodi:arg2="1.6138978"
         inkscape:rounded="0"
         inkscape:randomized="0"
         d="M 7.6009497,7.366559 5.6874817,6.2528124 3.6852296,7.1976813 4.1531715,5.0336985 2.6358179,3.4214242 4.8384898,3.1977559 5.9029658,1.2564466 6.79635,3.2821949 8.971586,3.6946741 7.3210558,5.1703236 Z"
         inkscape:transform-center-x="-0.037076258"
         inkscape:transform-center-y="-0.23890376"
         transform="matrix(0.83520518,0,0,0.86605062,-4.8472819,-11.520482)" />
      <path
         style="fill:#002255;fill-opacity:1;stroke:none;stroke-width:0.264999;stroke-dasharray:none"
         d="m -2.6458332,-8.5573554 1.2673015,1.3963133 1.3229167,-0.2671034 z"
         id="path3770" />
      <path
         style="fill:#002255;fill-opacity:1;stroke:none;stroke-width:0.264999;stroke-dasharray:none"
         d="M 0.0829055,-10.432335 -0.055615,-7.4281453 0.8290646,-8.6779351 0.0829055,-10.432335"
         id="path3772" />
      <path
         style="fill:#002255;fill-opacity:1;stroke:none;stroke-width:0.264999;stroke-dasharray:none"
         d="m 2.6458332,-8.3207071 -2.7014482,0.8925618 1.3229166,0.3854252 z"
         id="path3774" />
      <path
         style="fill:#002255;fill-opacity:1;stroke:none;stroke-width:0.264999;stroke-dasharray:none"
         d="M -1.7693591,-5.2869256 -0.055615,-7.4281453 -0.097068,-6.10523 -1.7693593,-5.2869256"
         id="path3776" />
      <path
         style="fill:#002255;fill-opacity:1;stroke:none;stroke-width:0.264999;stroke-dasharray:none"
         d="m -0.055615,-7.4281453 1.3229166,0.3854252 0.2337689,1.9020512 -1.5566855,-2.2874764"
         id="path3778" />
    </g>
  </g>
  <metadata
     id="metadata3703">
    <rdf:RDF>
      <cc:Work
         rdf:about="">
        <dc:title>jottaro logo</dc:title>
      </cc:Work>
    </rdf:RDF>
  </metadata>
</svg>
