<?xml version="1.0" encoding="UTF-8" standalone="no"?>
<!-- Created with Inkscape (http://www.inkscape.org/) -->

<svg
   width="48"
   height="48"
   viewBox="0 0 12.7 12.7"
   version="1.1"
   id="svg3064"
   xml:space="preserve"
   xmlns="http://www.w3.org/2000/svg"
   xmlns:svg="http://www.w3.org/2000/svg"
   xmlns:rdf="http://www.w3.org/1999/02/22-rdf-syntax-ns#"
   xmlns:cc="http://creativecommons.org/ns#"
   xmlns:dc="http://purl.org/dc/elements/1.1/"><title
     id="title3705">jottaro logo</title><defs
     id="defs3061" /><g
     id="layer1"><rect
       style="fill:none;stroke:none;stroke-width:0.26715;stroke-dasharray:none"
       id="rect1178"
       width="8.5385122"
       height="10.583333"
       x="2.3960969"
       y="1.8952229"
       ry="1.0093855" /><path
       id="rect1543"
       style="fill:#000c40;fill-opacity:1;stroke-width:0.26715"
       d="m 3.2705449,1.7602856 h 6.5197413 c 0.5591998,0 1.0093858,0.4501859 1.0093858,1.0093855 v 8.5645619 c 0,0.5592 -0.450186,1.009386 -1.0093858,1.009386 H 3.2705449 c -0.5591996,0 -1.0093855,-0.450186 -1.0093855,-1.009386 V 2.7696711 c 0,-0.5591996 0.4501859,-1.0093855 1.0093855,-1.0093855 z" /><path
       id="rect1541"
       style="fill:#7ec0ee;fill-opacity:1;stroke-width:0.26715"
       d="m 3.1408991,1.6306398 h 6.5197413 c 0.5591996,0 1.0093856,0.4501859 1.0093856,1.0093855 v 8.5645617 c 0,0.5592 -0.450186,1.009386 -1.0093856,1.009386 H 3.1408991 c -0.5591996,0 -1.0093855,-0.450186 -1.0093855,-1.009386 V 2.6400253 c 0,-0.5591996 0.4501859,-1.0093855 1.0093855,-1.0093855 z" /><path
       id="rect1487"
       style="fill:#003d25;fill-opacity:1;stroke-width:0.26715"
       d="m 3.0112532,1.500994 h 6.5197413 c 0.5591995,0 1.0093855,0.4501859 1.0093855,1.0093854 v 8.5645626 c 0,0.559199 -0.450186,1.009385 -1.0093855,1.009385 H 3.0112532 c -0.5591995,0 -1.0093854,-0.450186 -1.0093854,-1.009385 V 2.5103794 c 0,-0.5591995 0.4501859,-1.0093854 1.0093854,-1.0093854 z" /><path
       id="rect1741"
       style="fill:#4d95ff;stroke-width:0.260266"
       d="m 9.8637897,0.22164482 c 0.1610103,0 0.2906313,0.17582621 0.2906313,0.39422917 V 2.4113364 c 0,0.2184029 -0.129621,0.3942291 -0.2906313,0.3942291 -0.1610098,0 -0.2906314,-0.1758262 -0.2906314,-0.3942291 V 0.61587399 c 0,-0.21840296 0.1296216,-0.39422917 0.2906314,-0.39422917 z" /><path
       id="rect840"
       style="fill:#00a362;stroke-width:0.26715"
       d="m 2.7747762,1.2643743 h 6.5197413 c 0.5591996,0 1.0093855,0.4501859 1.0093855,1.0093854 v 8.5645623 c 0,0.559199 -0.4501859,1.009385 -1.0093855,1.009385 H 2.7747762 c -0.5591995,0 -1.0093854,-0.450186 -1.0093854,-1.009385 V 2.2737597 c 0,-0.5591995 0.4501859,-1.0093854 1.0093854,-1.0093854 z" /><path
       id="rect1112"
       style="fill:#7ec0ee;stroke-width:0.260266"
       d="m 2.7089671,0.22164482 c 0.1610098,0 0.2906315,0.17582621 0.2906315,0.39422917 V 2.4113364 c 0,0.2184029 -0.1296217,0.3942291 -0.2906315,0.3942291 -0.1610098,0 -0.2906314,-0.1758262 -0.2906314,-0.3942291 V 0.61587399 c 0,-0.21840296 0.1296216,-0.39422917 0.2906314,-0.39422917 z" /><path
       id="path1654"
       style="fill:#4d95ff;fill-opacity:1;stroke:none;stroke-width:0.260272;stroke-dasharray:none"
       d="m 4.8908591,0.2214441 c -0.1610171,0 -0.2904216,0.1758884 -0.2904216,0.3942912 V 1.2642745 H 5.1817974 V 0.6157353 c 0,-0.2184028 -0.1299213,-0.3942912 -0.2909383,-0.3942912 z" /><path
       id="rect1116"
       style="fill:#7ec0ee;stroke-width:0.260266"
       d="m 4.3664438,0.22164482 c 0.1610098,0 0.2906314,0.17582621 0.2906314,0.39422917 V 2.4113364 c 0,0.2184029 -0.1296216,0.3942291 -0.2906314,0.3942291 -0.1610098,0 -0.2906315,-0.1758262 -0.2906315,-0.3942291 V 0.61587399 c 0,-0.21840296 0.1296217,-0.39422917 0.2906315,-0.39422917 z" /><path
       id="path1735"
       style="fill:#4d95ff;fill-opacity:1;stroke:none;stroke-width:0.260272;stroke-dasharray:none"
       d="m 6.5484325,0.2214441 c -0.1610171,0 -0.2904216,0.1758884 -0.2904216,0.3942912 V 1.2642745 H 6.8393708 V 0.6157353 c 0,-0.2184028 -0.1299213,-0.3942912 -0.2909383,-0.3942912 z" /><path
       id="rect1118"
       style="fill:#7ec0ee;stroke-width:0.260266"
       d="m 6.0239197,0.22164482 c 0.1610099,0 0.2906315,0.17582621 0.2906315,0.39422917 V 2.4113364 c 0,0.2184029 -0.1296216,0.3942291 -0.2906315,0.3942291 -0.1610098,0 -0.2906314,-0.1758262 -0.2906314,-0.3942291 V 0.61587399 c 0,-0.21840296 0.1296216,-0.39422917 0.2906314,-0.39422917 z" /><path
       id="path1737"
       style="fill:#4d95ff;fill-opacity:1;stroke:none;stroke-width:0.260272;stroke-dasharray:none"
       d="m 8.2060056,0.2214441 c -0.1610171,0 -0.2904217,0.1758884 -0.2904217,0.3942912 v 0.6485392 h 0.58136 V 0.6157353 c 0,-0.2184028 -0.1299213,-0.3942912 -0.2909383,-0.3942912 z" /><path
       id="rect1120"
       style="fill:#7ec0ee;stroke-width:0.260272"
       d="m 7.68141,0.22164482 c 0.1610172,0 0.2906448,0.17582621 0.2906448,0.39422917 V 2.4113364 c 0,0.2184029 -0.1296276,0.3942291 -0.2906448,0.3942291 -0.1610172,0 -0.2906448,-0.1758262 -0.2906448,-0.3942291 V 0.61587399 c 0,-0.21840296 0.1296276,-0.39422917 0.2906448,-0.39422917 z" /><path
       id="rect1122"
       style="fill:#7ec0ee;stroke-width:0.260266"
       d="m 9.3388731,0.22164482 c 0.1610098,0 0.2906314,0.17582621 0.2906314,0.39422917 V 2.4113364 c 0,0.2184029 -0.1296216,0.3942291 -0.2906314,0.3942291 -0.1610099,0 -0.2906315,-0.1758262 -0.2906315,-0.3942291 V 0.61587399 c 0,-0.21840296 0.1296216,-0.39422917 0.2906315,-0.39422917 z" /><path
       id="path1056"
       style="fill:#ffd700;stroke-width:0.233699"
       d="M 9.3419387,6.4711914 A 3.3072917,3.3072917 0 0 1 6.034647,9.7784832 3.3072917,3.3072917 0 0 1 2.7273552,6.4711914 3.3072917,3.3072917 0 0 1 6.034647,3.1638997 3.3072917,3.3072917 0 0 1 9.3419387,6.4711914 Z" /><path
       id="rect1545"
       style="fill:#4d95ff;fill-opacity:1;stroke:none;stroke-width:0.260272;stroke-dasharray:none"
       d="m 3.2901117,0.2214441 c -0.1610171,0 -0.2904216,0.1758884 -0.2904216,0.3942912 V 1.2642745 H 3.5810499 V 0.6157353 c 0,-0.2184028 -0.1299213,-0.3942912 -0.2909382,-0.3942912 z" /><path
       id="path2597"
       style="fill:#7ec0ee;stroke-width:0.264999"
       transform="matrix(0.83520518,0,0,0.86605062,1.187365,2.401371)"
       d="M 7.6009497,7.366559 5.6874817,6.2528124 3.6852296,7.1976813 4.1531715,5.0336985 2.6358179,3.4214242 4.8384898,3.1977559 5.9029658,1.2564466 6.79635,3.2821949 8.971586,3.6946741 7.3210558,5.1703236 Z" /><path
       style="fill:#000c40;fill-opacity:1;stroke:none;stroke-width:0.264999;stroke-dasharray:none"
       d="M 3.3888137,5.3644976 4.6561152,6.7608109 5.9790319,6.4937075 Z"
       id="path2599" /><path
       style="fill:#000c40;fill-opacity:1;stroke:none;stroke-width:0.264999;stroke-dasharray:none"
       d="M 6.1175524,3.489518 5.9790319,6.4937077 6.8637115,5.2439179 6.1175524,3.489518"
       id="path2601" /><path
       style="fill:#000c40;fill-opacity:1;stroke:none;stroke-width:0.264999;stroke-dasharray:none"
       d="M 8.6804801,5.6011459 5.9790319,6.4937077 7.3019485,6.8791329 Z"
       id="path2603" /><path
       style="fill:#000c40;fill-opacity:1;stroke:none;stroke-width:0.264999;stroke-dasharray:none"
       d="M 4.2652878,8.6349274 5.9790319,6.4937077 5.9375789,7.816623 4.2652876,8.6349274"
       id="path2605" /><path
       style="fill:#000c40;fill-opacity:1;stroke:none;stroke-width:0.264999;stroke-dasharray:none"
       d="M 5.9790319,6.4937077 7.3019485,6.8791329 7.5357174,8.7811841 5.9790319,6.4937077"
       id="path2607" /></g><metadata
     id="metadata3703"><rdf:RDF><cc:Work
         rdf:about=""><dc:title>jottaro logo</dc:title></cc:Work></rdf:RDF></metadata></svg>
